<svg width="102" height="42" viewBox="0 0 102 42" fill="none" xmlns="http://www.w3.org/2000/svg">
<path d="M17.0382 26.88C15.6757 28.6505 13.5618 29.7877 11.1805 29.7877H11.1551C8.76107 29.7877 6.63448 28.6246 5.28467 26.8412L11.1678 20.8966L17.0382 26.88Z" fill="#FD7114"/>
<path fill-rule="evenodd" clip-rule="evenodd" d="M52.0571 3.28245C52.0571 4.01907 52.3245 4.66522 52.8466 5.19507C53.3815 5.72491 54.0054 5.9963 54.7313 5.9963C55.4571 5.9963 56.0938 5.72491 56.6159 5.19507C57.138 4.66522 57.4054 4.01907 57.4054 3.28245C57.4054 2.54583 57.138 1.89968 56.6159 1.36983C56.0938 0.839988 55.4571 0.568604 54.7313 0.568604C54.0054 0.568604 53.3687 0.839988 52.8466 1.36983C52.3245 1.89968 52.0571 2.54583 52.0571 3.28245ZM52.6684 30.1237C52.6684 30.7181 52.8594 31.2221 53.2541 31.6228C53.6489 32.0234 54.1455 32.2172 54.7313 32.2172C55.3553 32.2172 55.8519 32.0234 56.2339 31.6228C56.6159 31.2351 56.8069 30.7311 56.8069 30.1237V11.7729C56.8069 11.1397 56.6159 10.6357 56.2339 10.248C55.8519 9.8603 55.3553 9.66645 54.7313 9.66645C54.1455 9.66645 53.6489 9.8603 53.2541 10.248C52.8594 10.6357 52.6684 11.1397 52.6684 11.7729V30.1237Z" fill="white"/>
<path d="M79.3205 30.4855C79.3205 31.0929 79.0785 31.5969 78.5946 32.0105C78.1872 32.3465 77.7542 32.5015 77.2958 32.5015C76.6973 32.5015 76.2134 32.256 75.8313 31.7649L68.1145 22.0726L66.077 23.8818V30.1883C66.077 30.7957 65.8988 31.2868 65.5295 31.6486C65.1602 32.0234 64.6763 32.2043 64.0905 32.2043C63.492 32.2043 63.0081 32.0234 62.6516 31.6486C62.2823 31.2738 62.104 30.7957 62.104 30.1883V2.016C62.104 1.40862 62.2823 0.917538 62.6516 0.555692C63.0209 0.180923 63.492 0 64.0905 0C64.689 0 65.1729 0.180923 65.5295 0.555692C65.8988 0.930462 66.077 1.42154 66.077 2.016V18.8031L75.946 9.86031C76.3025 9.49846 76.7227 9.33046 77.2066 9.33046C77.7797 9.33046 78.2381 9.55015 78.5946 9.98954C78.9512 10.3514 79.1167 10.7778 79.1167 11.2689C79.1167 11.8505 78.9003 12.3157 78.4673 12.6775L70.9924 19.4363L78.8748 29.2578C79.1677 29.5809 79.3205 29.9945 79.3205 30.4855Z" fill="white"/>
<path fill-rule="evenodd" clip-rule="evenodd" d="M96.5751 10.9717C98.2687 11.9409 99.5931 13.2978 100.561 15.0295C101.516 16.7612 102 18.7385 102 20.9742C102 23.1711 101.516 25.1354 100.574 26.8671C99.6313 28.5988 98.307 29.9557 96.6133 30.9249C94.9197 31.8942 92.9841 32.3852 90.8193 32.3852C88.6545 32.3852 86.7189 31.9071 85.0126 30.9249C83.3062 29.9557 81.9691 28.5988 81.0268 26.8671C80.0717 25.1354 79.6006 23.1711 79.6006 20.9742C79.6006 18.7385 80.0845 16.7612 81.0268 15.0295C81.9819 13.2978 83.3062 11.9538 85.0126 10.9717C86.7189 10.0025 88.6545 9.51138 90.8193 9.51138C92.9586 9.51138 94.8815 10.0025 96.5751 10.9717ZM82.9369 20.9354C82.9369 25.3551 86.4643 28.9218 90.8066 28.9218C95.1489 28.9218 98.6635 25.3551 98.6762 20.9354C98.6762 16.5157 95.1489 12.9489 90.8066 12.9489C86.4515 12.9489 82.9369 16.5286 82.9369 20.9354Z" fill="white"/>
<path fill-rule="evenodd" clip-rule="evenodd" d="M43.0922 10.9717C44.7858 11.9409 46.1102 13.2978 47.078 15.0295C48.033 16.7612 48.5169 18.7385 48.5042 20.9742C48.5042 23.1711 48.0203 25.1354 47.078 26.8671C46.1357 28.5988 44.8113 29.9557 43.1177 30.9249C41.424 31.8942 39.4885 32.3852 37.3237 32.3852C35.1589 32.3852 33.2233 31.9071 31.5169 30.9249C31.0712 30.6794 30.651 30.3951 30.2563 30.0849V39.7772C30.2563 40.4105 30.0652 40.9145 29.6832 41.3022C29.3012 41.6898 28.8046 41.8837 28.1806 41.8837C27.5948 41.8837 27.0982 41.6898 26.7034 41.3022C26.3087 40.9145 26.1177 40.4105 26.1177 39.7772V20.9742C26.1177 18.7385 26.6016 16.7612 27.5439 15.0295C28.4989 13.2978 29.8233 11.9538 31.5297 10.9717C32.9941 10.1317 34.6495 9.65354 36.4705 9.53723H36.5342H36.5724C36.8016 9.52431 37.0563 9.51138 37.2982 9.51138H37.3364C39.4757 9.51138 41.3986 10.0025 43.0922 10.9717ZM29.454 20.9354C29.454 25.3551 32.9813 28.9218 37.3237 28.9218C41.666 28.9218 45.1933 25.3551 45.1933 20.9354C45.1933 16.5157 41.666 12.9489 37.3237 12.9489C32.9686 12.9489 29.454 16.5286 29.454 20.9354Z" fill="white"/>
<path fill-rule="evenodd" clip-rule="evenodd" d="M16.8854 11.0105C18.579 12.0185 19.9161 13.3883 20.9094 15.1329C21.9026 16.8775 22.3865 18.816 22.3738 20.9612V30.1625C22.3738 30.7569 22.1828 31.2609 21.788 31.6615C21.406 32.0622 20.9094 32.256 20.3109 32.256C19.7251 32.256 19.2285 32.0622 18.8337 31.6615C18.439 31.2738 18.2479 30.7698 18.2479 30.1625V30.0849C17.8659 30.3951 17.4457 30.6665 17.0127 30.9249C15.3191 31.8942 13.3835 32.3852 11.2187 32.3852C9.05393 32.3852 7.11835 31.9071 5.41198 30.9249C3.70562 29.9557 2.36854 28.5988 1.42622 26.8671C1.41985 26.8606 1.41667 26.8509 1.41348 26.8412C1.4103 26.8315 1.40712 26.8218 1.40075 26.8154L1.36255 26.8025C0.993258 26.0788 0.700375 25.3292 0.483895 24.5538C0.464794 24.4763 0.445693 24.402 0.426592 24.3277C0.407491 24.2534 0.38839 24.1791 0.369288 24.1015C0.362921 24.0692 0.356554 24.0402 0.350187 24.0111C0.34382 23.982 0.337453 23.9529 0.331086 23.9206C0.28015 23.7268 0.241949 23.52 0.203747 23.3132L0.203745 23.3132C0.203745 23.3003 0.200562 23.2874 0.197378 23.2745C0.194195 23.2615 0.191011 23.2486 0.191011 23.2357C0.152809 23.0031 0.114607 22.7705 0.0891386 22.5378V22.512C0.0636704 22.2665 0.0382022 22.0209 0.0254682 21.7625V21.7495C0.0127341 21.4911 0 21.2197 0 20.9612C0 18.816 0.483895 16.8775 1.46442 15.1329C2.44494 13.3883 3.79476 12.0185 5.51386 11.0105C7.23296 10.0154 9.13034 9.51138 11.2187 9.51138C13.3071 9.51138 15.1918 10.0025 16.8854 11.0105ZM3.3236 20.9354C3.3236 25.3551 6.85094 28.9218 11.1933 28.9218C15.5356 28.9218 19.0629 25.3551 19.0629 20.9354C19.0629 16.5157 15.5483 12.9489 11.1933 12.9489C6.8382 12.9489 3.3236 16.5286 3.3236 20.9354Z" fill="white"/>
</svg>
